<?xml version="1.0" encoding="utf-8"?>
<!-- Generator: Adobe Illustrator 19.0.0, SVG Export Plug-In . SVG Version: 6.00 Build 0)  -->
<svg version="1.1" id="Ebene_1" xmlns="http://www.w3.org/2000/svg" xmlns:xlink="http://www.w3.org/1999/xlink" x="0px" y="0px"
	 viewBox="-397 274.3 47 47" style="enable-background:new -397 274.3 47 47;" xml:space="preserve">
<style type="text/css">
	.st0{fill:#CC8A25;}
	.st1{fill:#6DBDC7;}
</style>
<path class="st0" d="M-379,321.3c-0.8,0-1.7,0-2.5-0.1c-1.2-0.1-2.4-0.2-3.6-0.3c-1-0.1-2.1-0.2-3.1-0.4c-1.2-0.2-2.4-0.3-3.5-0.6
	c-1.5-0.3-3-0.6-4.5-1c-0.4-0.1-0.4-0.3-0.4-0.6c0.2-1.1,0.3-2.1,0.5-3.2c0.5-2.4,1.3-4.8,2.5-7c0.8-1.6,1.8-3,3-4.3
	c1.4-1.6,2.9-3,4.7-4.1c1.2-0.8,2.4-1.4,3.8-2c0.2-0.1,0.3-0.1,0.5,0c1.7,1.1,3.6,1.8,5.6,2.2c1.6,0.3,3.2,0.3,4.9,0
	c2.2-0.3,4.1-1.1,6-2.2c0.2-0.1,0.3-0.1,0.5,0c2.2,0.9,4.2,2.2,6.1,3.7c2.6,2.3,4.6,5,6.1,8.2c1,2.1,1.6,4.3,2,6.5
	c0.1,0.7,0.2,1.4,0.3,2.2c0,0.3,0,0.4-0.3,0.5c-2.1,0.5-4.2,0.9-6.3,1.3c-1.9,0.3-3.8,0.6-5.7,0.7c-1.1,0.1-2.2,0.2-3.3,0.3
	c-0.7,0.1-1.3,0-2,0.1c-0.4,0-0.9,0-1.3,0c-0.3,0-0.7-0.1-1,0.1c-2.2,0-4.4,0-6.6,0c-0.1-0.1-0.2-0.1-0.3-0.1
	C-377.7,321.3-378.4,321.3-379,321.3z"/>
<path class="st0" d="M-371.8,274.4c0.4,0.1,0.8,0.2,1.2,0.3c2,0.5,3.7,1.4,5.2,2.9c1.9,1.8,3,4,3.4,6.6c0.4,2.2,0.1,4.4-0.9,6.5
	c-0.7,1.6-1.7,3-3,4.1c-1.7,1.4-3.6,2.3-5.8,2.7c-2.6,0.4-5.1,0-7.4-1.3c-1.9-1-3.3-2.5-4.4-4.3c-0.7-1.2-1.2-2.6-1.4-4
	c-0.3-2.2-0.1-4.4,0.8-6.4c0.7-1.7,1.8-3.1,3.2-4.3c1.6-1.4,3.4-2.2,5.5-2.5c0.1,0,0.1-0.1,0.2-0.1
	C-374,274.4-372.9,274.4-371.8,274.4z"/>
<path class="st1" d="M-379,321.3c0.7,0,1.3,0,2,0c0.1,0,0.2,0,0.3,0.1C-377.5,321.4-378.2,321.4-379,321.3
	C-379,321.3-379,321.3-379,321.3z"/>
<path class="st1" d="M-370.1,321.4c0.3-0.2,0.7-0.1,1-0.1c0.4,0,0.9,0,1.3,0c0,0,0,0.1,0,0.1C-368.6,321.4-369.3,321.4-370.1,321.4z
	"/>
</svg>
