<?xml version="1.0" encoding="utf-8"?>
<!-- Generator: Adobe Illustrator 19.0.0, SVG Export Plug-In . SVG Version: 6.00 Build 0)  -->
<svg version="1.1" id="Ebene_1" xmlns="http://www.w3.org/2000/svg" xmlns:xlink="http://www.w3.org/1999/xlink" x="0px" y="0px"
	 viewBox="-397 274.3 47 47" style="enable-background:new -397 274.3 47 47;" xml:space="preserve">
<style type="text/css">
	.st0{fill:#CC8A25;}
</style>
<g>
	<path class="st0" d="M-351.1,321.4c-14.9,0-29.8,0-44.7,0c0.1-0.1,0-0.1,0-0.1c-0.6-0.4-0.8-1-0.9-1.7c0-0.6,0.2-1.2,0.3-1.8
		c0.1-0.6,0.2-1.1,0.3-1.7c0.1-0.5,0.2-1,0.3-1.5c0.2-0.9,0.4-1.8,0.5-2.7c0.1-0.5,0.2-1,0.3-1.5c0.2-0.9,0.3-1.7,0.5-2.6
		c0.1-0.5,0.2-1,0.3-1.5c0.2-0.9,0.4-1.8,0.6-2.7c0.1-0.5,0.2-1,0.3-1.4c0.2-0.9,0.4-1.8,0.5-2.7c0.1-0.5,0.2-1,0.3-1.5
		c0.2-0.8,0.3-1.7,0.5-2.5c0.2-1,0.4-2.1,0.6-3.1c0.1-0.7,0.3-1.3,0.4-2c0.1-0.8,0.7-1.4,1.5-1.4c10.7,0,21.4,0,32.1,0
		c0.6,0,1.3,0.5,1.4,1.1c0.2,0.7,0.3,1.4,0.4,2.1c0.3,1.3,0.5,2.6,0.8,3.9c0.1,0.6,0.2,1.3,0.4,1.9c0.2,1,0.4,2,0.6,3
		c0.2,1,0.4,2,0.6,3c0.2,0.9,0.3,1.8,0.6,2.7c0.1,0.5,0.1,1,0.3,1.5c0.3,0.9,0.3,1.8,0.5,2.6c0.1,0.5,0.1,1,0.3,1.5
		c0.3,0.7,0.3,1.5,0.5,2.3c0.2,1,0.4,1.9,0.6,2.9c0.1,0.8,0.4,1.5,0.3,2.2c-0.1,0.7-0.3,1.2-0.8,1.6
		C-351,321.2-351.1,321.3-351.1,321.4z M-381.6,290.7c-1.4-0.1-2.7,1.2-2.7,2.6c0,1.3,1.1,2.6,2.6,2.6c1.4,0,2.6-1.1,2.6-2.7
		C-378.9,291.9-380.1,290.7-381.6,290.7z M-365.3,290.7c-1.5-0.1-2.6,1.2-2.6,2.7c0,1.4,1.1,2.6,2.7,2.6c1.5,0,2.6-1.2,2.6-2.6
		C-362.6,292.1-363.8,290.7-365.3,290.7z"/>
	<path class="st0" d="M-371.3,274.4c0,0.2,0.1,0.1,0.2,0.2c1.1,0.2,2,0.5,2.9,1.1c0.7,0.5,1.4,1,2,1.7c0.4,0.5,0.7,1.1,0.9,1.6
		c0.3,0.7,0.5,1.4,0.7,2.2c0.1,0.5,0.2,1,0.2,1.5c0,0.9,0.1,1.8,0.1,2.6c-0.1,1.6-1.5,2.2-2.7,1.7c-0.6-0.3-0.9-0.8-1-1.5
		c-0.1-1.4-0.1-2.8-0.5-4.1c-0.3-1.1-0.9-2-1.9-2.6c-0.5-0.3-1.1-0.3-1.7-0.5c-0.7-0.2-1.4-0.2-2.1-0.1c-1.2,0.1-2.4,0.4-3.3,1.3
		c-0.4,0.4-0.6,0.9-0.8,1.3c-0.3,0.8-0.4,1.6-0.5,2.4c-0.1,0.8-0.1,1.7-0.2,2.5c-0.1,1-1.2,1.6-2.3,1.3c-1-0.3-1.3-0.9-1.3-1.8
		c0-1.4,0-2.8,0.3-4.2c0.2-1,0.5-2,1.1-2.9c0.4-0.7,1-1.4,1.6-1.9c0.4-0.4,0.9-0.7,1.4-0.9c0.7-0.3,1.4-0.5,2.1-0.7
		c0.1,0,0.2,0,0.4,0c0.1,0,0.2,0,0.2-0.1C-374.1,274.4-372.7,274.4-371.3,274.4z"/>
</g>
</svg>
