<?xml version="1.0" encoding="utf-8"?>
<!-- Generator: Adobe Illustrator 19.0.0, SVG Export Plug-In . SVG Version: 6.00 Build 0)  -->
<svg version="1.1" id="Ebene_1" xmlns="http://www.w3.org/2000/svg" xmlns:xlink="http://www.w3.org/1999/xlink" x="0px" y="0px"
	 viewBox="0 0 841.9 595.3" style="enable-background:new 0 0 841.9 595.3;" xml:space="preserve">
<style type="text/css">
	.st0{fill:#2E2E2F;}
	.st1{fill:#CC8A25;}
</style>
<g id="XMLID_1_">
	<polygon id="XMLID_179_" class="st0" points="680.3,330.5 691.1,350.4 837.4,167.4 690.1,400.7 655.4,338.9 	"/>
	<path id="XMLID_21_" class="st0" d="M60.9,318.6c-3,7.2-4.4,15.1-4.4,23.7c0,8.4,1.3,16.2,3.9,23.4c2.6,7.2,6.3,13.4,11.1,18.7
		c4.8,5.2,10.7,9.4,17.6,12.3c6.9,3,14.8,4.5,23.5,4.5c9.5,0,17.8-1.5,24.8-4.6c7-3.1,12.8-7.7,17.4-13.7l-10.6-11.1
		c-0.6-0.6-1.2-1-1.8-1.2c-0.6-0.2-1.3-0.4-1.9-0.4c-0.8,0-1.6,0.2-2.3,0.5c-0.7,0.3-1.4,0.8-2.1,1.3c-1.6,1.4-3.1,2.5-4.7,3.4
		c-1.6,0.9-3.2,1.7-4.9,2.3c-1.7,0.6-3.6,1-5.6,1.2c-2,0.2-4.2,0.4-6.6,0.4c-4.2,0-8.2-0.8-11.9-2.4c-3.7-1.6-6.9-4-9.7-7.2
		c-2.8-3.1-5-7-6.6-11.6c-1.6-4.6-2.4-9.8-2.4-15.7c0-1.2,0-2.3,0.1-3.5c-9.6-2.9-18.4-5.9-26.3-9C58.4,325.9,59.5,322.2,60.9,318.6
		 M305.4,370c-10.5-0.5-20.8-1-30.9-1.7c2.8,6,6.4,11.3,11,15.9c5.2,5.3,11.6,9.4,18.9,12.4c7.4,3,15.5,4.5,24.5,4.5
		c9,0,17.1-1.5,24.5-4.5c7.4-3,13.6-7.2,18.9-12.4c5.2-5.3,5.7-5.9,9.4-12.9l0,0l0,0c-3.3,0-6.6,0-9.9,0c-7,0-14-0.1-20.9-0.1
		c-2.4,2.2-5.1,4-8.3,5.3c-4,1.7-8.6,2.5-13.7,2.5c-5.2,0-9.8-0.8-13.8-2.5C311.1,374.9,308.3,373.2,305.4,370 M233.9,399.9h26.9
		v-32.5c-9.1-0.7-18-1.4-26.8-2.3 M160.2,399.9h26.9v-40.2c-9.2-1.3-18.2-2.6-26.8-4.1 M564.5,305.3v26.9h36.2V352h0v-19.8h-36.2
		L564.5,305.3L564.5,305.3z M439.5,370.1c3.2,7.4,4.5,9,9.4,14.3c4.8,5.2,10.7,9.4,17.6,12.3c6.9,3,14.8,4.5,23.5,4.5
		c9.5,0,17.8-1.5,24.8-4.6c7-3.1,12.8-7.7,17.4-13.7l-10.6-11.1c-0.6-0.6-1.2-1-1.8-1.2c-0.6-0.2-1.3-0.4-1.9-0.4
		c-0.8,0-1.6,0.2-2.3,0.5c-0.7,0.3-1.4,0.8-2.1,1.3c-1.6,1.4-3.1,2.5-4.7,3.4c-1.6,0.9-3.2,1.7-4.9,2.3c-1.7,0.6-3.6,1-5.6,1.2
		c-2,0.2-4.2,0.4-6.6,0.4c-4.2,0-8.2-0.8-11.9-2.4c-3.7-1.6-6.9-4-9.7-7.2c-0.3-0.4-0.6-0.7-0.9-1.1
		C459.6,369.2,449.7,369.7,439.5,370.1 M397.8,399.9h26.9v-29.4c-8.9,0.3-17.8,0.5-26.9,0.7L397.8,399.9z M564.5,352L564.5,352l0,7
		c-8.7,1.2-17.7,2.4-26.8,3.5v37.5h74.1v-20.5h-47.3V352z"/>
	<path id="XMLID_10_" class="st1" d="M233.9,333h-46.8v-48.1h-26.9v70.9c8.7,1.4,17.6,2.8,26.9,4.1v-8.5h46.8v13.9
		c8.8,0.8,17.8,1.6,26.9,2.3v-82.7h-26.9V333z M372.2,300.6c-5.2-5.3-11.5-9.4-18.9-12.4c-7.4-3-15.5-4.5-24.5-4.5
		c-9,0-17.1,1.5-24.5,4.5c-7.4,3-13.7,7.1-18.9,12.4c-5.2,5.3-9.3,11.5-12.2,18.7c-2.9,7.2-4.3,14.9-4.3,23.2
		c0,8.3,1.4,16.1,4.3,23.2c0.4,0.9,0.8,1.9,1.2,2.8c10.2,0.7,20.5,1.2,31,1.7c-0.2-0.2-0.4-0.4-0.6-0.7c-2.8-3.2-4.9-7-6.4-11.6
		c-1.5-4.6-2.2-9.7-2.2-15.5c0-5.7,0.7-10.8,2.2-15.4c1.5-4.6,3.6-8.4,6.4-11.6c2.8-3.2,6.2-5.6,10.2-7.3c4-1.7,8.6-2.5,13.8-2.5
		c5.1,0,9.7,0.8,13.7,2.5c4,1.7,7.4,4.1,10.2,7.3c2.8,3.2,4.9,7,6.4,11.6c1.5,4.6,2.2,9.7,2.2,15.4c0,5.7-0.7,10.9-2.2,15.5
		c-1.5,4.6-3.6,8.4-6.4,11.6c-0.6,0.7-1.2,1.3-1.9,1.9c6.9,0.1,13.9,0.1,21,0.1c3.3,0,6.6,0,9.8,0c1-1.9,1.9-3.8,2.7-5.8
		c2.9-7.2,4.3-14.9,4.3-23.2c0-8.3-1.4-16-4.3-23.2C381.5,312.1,377.5,305.9,372.2,300.6z M537.6,362.6c9.2-1.1,18.2-2.2,26.9-3.5
		v-7h36.2v-19.8h-36.2v-26.9h47.3v-20.6h-74.1V362.6z M397.8,371.3c9.1-0.1,18-0.4,26.9-0.7v-85.8h-26.9V371.3z M725.4,285.5H625.4
		l30,53.4c9-2.7,17.3-5.5,24.9-8.5l-9-16.5l31.1,0L725.4,285.5z M139.6,287.9c-3.3-1.3-6.9-2.4-10.7-3.2c-3.8-0.8-7.9-1.1-12.2-1.1
		c-8.9,0-17,1.5-24.4,4.3c-7.4,2.9-13.7,7-19,12.2c-5.3,5.2-9.4,11.4-12.4,18.6c-1.5,3.6-2.6,7.3-3.3,11.2c8,3.1,16.7,6.2,26.3,9
		c0.3-4.3,1-8.2,2.3-11.8c1.6-4.5,3.8-8.4,6.7-11.6c2.9-3.2,6.3-5.6,10.3-7.4c4-1.7,8.4-2.6,13.3-2.6c2.8,0,5.2,0.2,7.3,0.6
		c2.1,0.4,3.9,0.9,5.5,1.5c1.6,0.6,2.9,1.3,4,2c1.1,0.7,2.2,1.4,3.1,2c0.9,0.6,1.8,1.1,2.7,1.5c0.8,0.4,1.7,0.6,2.7,0.6
		c1.4,0,2.5-0.3,3.3-0.9c0.8-0.6,1.5-1.3,2.1-2l9-12.1c-2.2-2.3-4.6-4.3-7.4-6.2C146,290.9,143,289.2,139.6,287.9z M517.1,288
		c-3.3-1.3-6.9-2.4-10.7-3.2c-3.8-0.8-7.9-1.1-12.2-1.1c-8.9,0-17,1.5-24.4,4.3c-7.4,2.9-13.7,7-19,12.2
		c-5.3,5.2-9.4,11.4-12.4,18.6c-3,7.2-4.4,15.1-4.4,23.7c0,8.4,1.3,16.2,3.9,23.4c0.5,1.5,1.1,2.9,1.7,4.3c10.1-0.4,20-1,29.7-1.6
		c-2.3-2.9-4.2-6.4-5.6-10.4c-1.6-4.6-2.4-9.8-2.4-15.7c0-5.6,0.8-10.7,2.4-15.3c1.6-4.5,3.8-8.4,6.7-11.6c2.9-3.2,6.3-5.6,10.3-7.4
		c4-1.7,8.4-2.6,13.3-2.6c2.8,0,5.2,0.2,7.3,0.6c2.1,0.4,3.9,0.9,5.5,1.5c1.6,0.6,2.9,1.3,4,2c1.1,0.7,2.2,1.4,3.1,2
		c0.9,0.6,1.8,1.1,2.7,1.5c0.8,0.4,1.7,0.6,2.7,0.6c1.4,0,2.5-0.3,3.3-0.9c0.8-0.6,1.5-1.3,2.1-2l9-12.1c-2.2-2.3-4.6-4.3-7.4-6.2
		C523.5,290.9,520.4,289.3,517.1,288z"/>
</g>
</svg>
